<?xml version="1.0" encoding="UTF-8" standalone="no"?>
<!-- Created with Inkscape (http://www.inkscape.org/) -->

<svg
   version="1.1"
   id="svg23278"
   width="793.59998"
   height="1122.88"
   viewBox="0 0 793.59998 1122.88"
   sodipodi:docname="croqui-rosto-direito.svg"
   inkscape:version="1.1.2 (0a00cf5339, 2022-02-04)"
   xmlns:inkscape="http://www.inkscape.org/namespaces/inkscape"
   xmlns:sodipodi="http://sodipodi.sourceforge.net/DTD/sodipodi-0.dtd"
   xmlns="http://www.w3.org/2000/svg"
   xmlns:svg="http://www.w3.org/2000/svg">
  <sodipodi:namedview
     id="namedview24407"
     pagecolor="#ffffff"
     bordercolor="#666666"
     borderopacity="1.0"
     inkscape:pageshadow="2"
     inkscape:pageopacity="0.0"
     inkscape:pagecheckerboard="0"
     showgrid="false"
     inkscape:zoom="0.7471858"
     inkscape:cx="396.82231"
     inkscape:cy="562.10918"
     inkscape:window-width="1920"
     inkscape:window-height="1011"
     inkscape:window-x="0"
     inkscape:window-y="32"
     inkscape:window-maximized="1"
     inkscape:current-layer="svg23278" />
  <defs
     id="defs23282" />
  <g
     id="g23284">
    <path
       style="fill:#000000;stroke-width:0.32"
       d="M 540.19669,927.62922 C 524.57291,913.98654 512.34,897.56739 505.32851,879.07491 c -9.61445,-31.47119 -4.97931,-65.277 -9.39804,-97.72128 -2.03616,-1.25451 -4.02262,-30.96232 1.23157,-43.44131 11.57083,-21.57677 32.74965,-35.87027 51.88937,-50.12489 0.72814,-1.98109 15.86748,-6.68104 18.107,-4.40055 18.49258,-3.20366 38.55003,-10.17541 46.93747,-28.51139 12.24238,-17.51503 -4.50304,-34.53052 -12.41422,-49.48891 -6.22928,-13.47546 19.84211,-36.42912 -7.62074,-27.26882 -19.13012,2.05907 -60.16796,-7.36034 -24.32499,-23.02633 7.90572,-13.24126 37.89929,-5.37343 29.47798,-22.03007 -3.86642,-20.85068 20.84716,-23.49474 31.57697,-35.12736 12.51382,-20.31008 -14.12235,-32.20858 -26.56448,-43.52 -18.07316,-18.05989 -39.79377,-31.55486 -60.82528,-45.44 -11.78313,-15.28799 -9.40629,-37.68071 -22.81141,-52.53798 -16.08969,-19.24964 -17.61947,-46.79841 -35.93357,-64.90773 -15.20909,-14.33495 -36.25132,-20.95318 -54.95859,-29.75429 -37.7949,-12.80979 -78.42828,-10.02512 -117.68141,-8.96969 -26.71931,1.63912 -49.84973,16.00388 -75.40512,22.06132 -18.99483,9.44702 -39.9415,19.07997 -54.06643,36.61226 -24.1258,21.89122 -43.65861,48.77824 -56.91213,78.51742 -16.58164,29.75439 -11.69909,65.45115 -9.77634,97.98659 3.88988,19.96198 10.61566,38.93198 15.47857,58.59213 18.01263,35.86515 49.16935,62.59497 75.6549,92.42726 7.5734,9.9264 12.61752,13.81603 14.36818,26.69421 4.36782,40.09817 5.03077,83.63715 -17.82632,118.79853 -10.03542,19.50722 -14.98727,26.25925 -28.2191,44.03103 -8.04465,7.99888 -34.76119,39.88985 -17.61146,11.98571 23.59572,-28.19011 46.56153,-58.61489 57.8099,-94.0066 3.11757,-26.5463 5.55654,-53.93938 3.03376,-80.49467 -5.84365,-22.67556 -27.23942,-36.77641 -41.56064,-54.15547 -23.78203,-23.89847 -47.24461,-50.62288 -54.59493,-84.39848 -12.2693,-35.74104 -14.53443,-73.88323 -10.25012,-111.2815 8.38111,-30.46009 25.91706,-57.78606 44.51032,-82.84987 23.20193,-25.28206 47.85776,-51.6276 81.76676,-61.79013 31.09699,-10.94658 62.27226,-25.03345 96.17469,-22.49017 37.90823,-0.72681 77.30373,-0.74379 112.13877,16.54785 17.20047,9.97539 37.98036,14.93252 47.78862,33.90434 14.42731,19.46769 17.45389,44.79344 33.80964,63.11541 9.64208,16.73157 6.57222,41.10146 26.88574,50.20226 29.88831,18.2918 56.07495,42.10082 81.62896,65.78391 14.34254,33.62179 -47.71086,28.29689 -32.78209,62.02762 -4.73614,19.41812 17.27339,33.64246 1.91263,52.5071 -3.8236,20.66216 24.87934,35.8856 14.52313,57.1512 -7.82189,24.6414 -33.83203,33.4657 -57.2335,37.00278 -23.47474,3.73103 -36.56754,25.67131 -54.44588,38.88474 -20.45027,21.78934 -6.50096,53.66416 -6.39133,79.92265 2.3971,25.87826 -4.45968,53.54276 9.43072,77.12 5.85369,15.22155 27.47075,34.17283 28.34065,44.41548 z m 56.61923,-352.8944 c 26.16374,-2.65825 -6.39543,-20.44888 -17.07177,-7.67472 -13.41072,2.1287 -27.07867,2.08158 -5.32822,5.73845 7.24866,1.71713 14.95364,2.99316 22.39999,1.93627 z m -23.51999,-9.88704 c 14.29381,4.53853 40.68921,-19.03269 16.81641,-17.74291 -5.38489,0.51788 -41.99095,22.32513 -16.81641,17.74291 z m -71.12879,327.46813 c -3.06441,-4.96859 5.84242,1.34176 0,0 z m -23.96858,-1.61015 c -1.42856,-4.88612 5.15513,2.27613 0,0 z m 7.17738,0.48266 c -3.30143,-5.37358 7.34013,0.41337 0,0 z m 6.85501,-0.69437 c -5.05732,-14.15769 8.23315,5.00041 0,0 z m -23.22928,0.0431 c -2.18633,-5.68851 5.33745,1.47065 0,0 z m -8.97053,-0.64336 c -1.41549,-5.79601 5.41401,2.74202 0,0 z m -10.2552,-0.50877 c -6.8287,-6.24259 9.14717,0.1786 0,0 z m -9.78906,-0.34969 c -8.47242,-4.43984 6.44736,-1.41276 0,0 z m -9.70809,-1.8441 c -1.45722,-4.48686 4.29367,1.73212 0,0 z m -14.58285,-0.45718 c 0.81758,-1.14798 0.81758,1.14798 0,0 z m -4.4,-0.95648 c -4.20324,-6.62472 6.28489,1.932 0,0 z m 8.82198,0.14496 c -3.64907,-6.13662 8.88668,2.23355 0,0 z m -28.99078,-2.24662 c -2.44413,-6.20906 6.83148,1.47149 0,0 z m 7.82214,0.2848 c -0.88508,-5.31625 6.93444,1.75551 0,0 z m -20.47264,-1.57172 c -2.55174,-6.41418 8.50683,2.24439 0,0 z m 111.83066,-0.31001 c -1.21002,-9.41729 5.18427,2.5893 0,0 z m -125.14451,-1.68352 c -5.64887,-12.70277 10.4377,4.4204 0,0 z m -7.06685,-1.34141 c -1.41146,-5.60319 6.26711,1.97673 0,0 z m -10.65818,-1.20602 c -4.29798,-5.22085 5.82574,-1.1635 0,0 z m -9.32367,-1.74518 c -1.59385,-6.46113 6.82992,2.50379 0,0 z m 151.37865,-0.39754 c -2.65075,-12.08945 6.12402,3.49937 0,0 z m -159.23526,-1.40048 c -3.09971,-7.49742 7.11997,1.91863 0,0 z m 31.69545,-2.50185 c -4.08282,-7.73212 5.75929,-0.0292 0,0 z m -37.603,-0.21914 c -1.74859,-5.87897 5.44557,1.56318 0,0 z m -6.44935,-2.58653 c -0.36033,-5.79263 4.89613,1.86118 0,0 z m -6.82163,-2.23552 c -0.40633,-3.14556 3.25109,1.34564 0,0 z m 177.55856,-1.03622 c -0.67266,-7.87898 4.07491,3.92004 0,0 z m -129.79098,-0.57693 c -3.90933,-9.93913 6.16028,2.60691 0,0 z m -57.89908,-3.49344 c 0.41677,-5.53589 3.74545,1.78992 0,0 z m 54.19927,-3.97363 c -3.28505,-10.40238 6.74963,3.20436 0,0 z m 132.45133,0.1089 c -3.64499,-8.252 5.54504,0.0127 0,0 z m -193.84953,-0.36944 c -0.0293,-3.28007 3.80349,0.9052 0,0 z m -7.87552,-4.19245 c -0.29612,-6.18348 4.40262,2.25882 0,0 z m 66.38563,-2.57453 c -4.30213,-9.57111 7.73592,2.35339 0,0 z m 133.69545,-0.7912 c -2.19908,-8.51756 4.42758,2.85143 0,0 z m -208.27374,-2.05107 c -1.16378,-2.38783 3.60359,0.0195 0,0 z m 70.20597,-4.72541 c -4.42194,-11.30348 7.82999,3.13583 0,0 z m -78.67037,0.23574 c -2.27322,-5.15301 6.02654,-0.15141 0,0 z m 214.03315,-2.5192 c -2.67024,-7.08136 5.43427,3.13839 0,0 z m -226.42931,-5.25676 c 1.04651,-5.52338 5.29286,2.83682 0,0 z m 87.07741,-0.17655 c -2.26693,-9.1977 5.88646,2.01673 0,0 z m 137.31875,-5.29689 c -2.793,-8.96179 4.88229,0.0642 0,0 z m -235.55453,-1.50509 c -1.01604,-4.66962 6.07625,1.57229 0,0 z m -6.68547,-2.0192 c -2.92525,-5.37028 6.64583,0.17034 0,0 z m 100.05939,-1.10378 c -0.41839,-9.35169 5.44684,5.25805 0,0 z m -109.0267,-4.95059 c -19.61125,-7.89897 6.9035,-3.5978 0,0 z m 106.03186,-3.06845 c -3.61471,-11.08167 8.84847,3.29599 0,0 z m -107.97121,-2.58489 c -0.69226,-5.17033 4.48568,0.0682 0,0 z m -13.33334,-0.42666 c -15.76239,-4.01905 14.81831,-2.51236 0,0 z M 477.76,812.14426 c -0.98618,-5.5341 4.2609,2.68168 0,-4e-5 z m -278.2708,-0.19859 c -6.71219,-5.34719 14.47474,0.0388 0,0 z m 21.07095,-0.8785 c 1.52833,-5.12144 3.50688,2.7609 0,0 z m 110.99902,-1.97629 c -2.22275,-8.07662 6.98957,2.22278 0,0 z M 224.17685,807.0569 c 0.93342,-4.05696 3.99812,2.15174 0,0 z m 250.41262,-3.47735 c -2.00062,-10.07801 5.00598,7.27573 0,0 z m -246.99889,-0.42179 c 2.11533,-2.73723 2.2742,2.42648 0,0 z m 100.30136,-3.23888 c -3.7828,-9.14411 7.8278,4.36128 0,0 z m -97.03047,-2.32825 c 0.61939,-4.8243 3.43709,3.27198 0,0 z m 239.67607,-2.84125 c 0.0978,-3.35795 4.29634,1.31308 0,0 z m -158.8416,-2.59635 c 0.81166,-6.46881 1.9949,4.46858 0,0 z m 157.19568,0.43222 c -5.28591,-8.85314 5.54335,0.56359 0,0 z m -235.79036,-0.38621 c 0.77849,-5.05868 3.86537,1.69848 0,0 z m 89.97587,-2.25411 c -1.5935,-9.58877 6.48533,5.33453 0,0 z m -87.54119,-2.34688 c 1.62439,-5.66557 2.22336,3.89327 0,0 z m 230.15331,-1.52067 c -3.31386,-6.1106 4.58493,0.67397 0,0 z m 4.91894,-1.38768 c -1.94027,-5.46997 5.17194,1.82109 0,0 z m -150.99225,-2.19309 c -6.19493,-15.34414 8.91257,6.64756 0,0 z m 159.23571,1.03744 c 0.5818,-3.673 3.86211,1.60314 0,0 z m -241.25336,-1.49562 c 2.10996,-6.13563 2.9328,3.71436 0,0 z m 247.85765,0.0556 c 3.43663,-2.35999 2.84878,2.14646 0,0 z m -22.67162,-2.18928 c -5.36749,-9.248 5.84652,2.47546 0,0 z m -222.83897,-2.5307 c 0.39655,-4.32646 2.56582,1.98495 0,0 z m 73.38835,-5.36586 c -6.44679,-13.65237 9.61304,5.95295 0,0 z m -72.46442,0.59252 c -0.78169,-8.14422 5.85173,-0.5388 0,0 z m 216.63136,-1.4744 c -3.49536,-9.00002 4.46268,0.68504 0,0 z m -148.62851,-6.35469 c -4.80874,-9.41188 6.90046,2.97468 0,0 z m 146.11427,-0.78243 c -0.56767,-5.1178 3.76141,2.98099 0,0 z m -211.38646,-0.19914 c -1.77485,-6.47224 4.81977,0.10514 0,0 z m 61.54567,-5.25203 c -7.41011,-10.41953 6.5009,-1.68122 0,0 z m -60.82463,-0.46819 c -1.19261,-10.84754 5.21252,1.09549 0,0 z m 206.97585,-2.61578 c -4.0055,-8.1186 4.84537,1.01556 0,0 z m -205.64299,-5.21664 c -0.30174,-6.99528 4.2684,1.25459 0,0 z m 54.72558,-0.87405 c -1.80569,-9.41266 5.99349,5.43573 0,0 z m -54.21948,-5.09331 c -1.24282,-6.01912 4.97276,0.31698 0,0 z m 198.98854,-0.8784 c -2.92531,-8.71212 5.7062,3.74964 0,0 z m -147.88234,-2.09043 c -0.92032,-9.17285 5.94244,5.91184 0,0 z m -50.95686,-4.54051 c -1.2129,-5.73793 4.74397,0.20353 0,0 z m 196.39456,-0.032 c -4.28723,-5.3055 4.41364,-2.05485 0,0 z m -147.77733,-3.35479 c -3.88397,-8.34315 6.36543,0.89596 0,0 z m -49.13016,-3.56185 c -0.0293,-6.55748 4.6393,2.99738 0,0 z m 192.93607,-2.51802 c -2.64984,-7.52967 4.64479,3.32757 0,0 z M 290.75444,723.8745 c -3.3702,-9.12189 6.30411,2.64999 0,0 z m 143.99123,-4.80973 c -3.76806,-10.16576 6.20917,3.18325 0,0 z m -188.11321,-2.81072 c -2.51289,-7.78914 5.57036,-0.76346 0,0 z m 40.58348,-0.005 c -4.81855,-6.17663 6.11864,0.0142 0,0 z m 144.19776,-3.76096 c -4.30044,-9.77635 6.41974,3.63319 0,0 z m -149.13007,-4.05718 c -2.46613,-8.88554 6.51986,4.90792 0,0 z m 145.24879,-3.53692 c -1.39946,-6.09618 4.35075,3.12619 0,0 z m -180.91563,-0.72893 c -1.294,-11.64576 5.88883,1.515 0,0 z m 30.64554,-4.4407 c -2.94129,-6.21235 6.50593,3.36054 0,0 z m 146.77498,-0.87216 c -1.00256,-5.65068 5.1463,3.63879 0,0 z m -151.06137,-4.85453 c -6.4549,-11.62947 6.16216,0.44652 0,0 z m -25.2,-2.7673 c -0.64635,-8.1929 4.22498,3.0488 0,0 z m 172.79776,0.89338 c -1.8028,-6.61137 5.08718,1.90176 0,0 z m -3.71843,-4.91616 c -3.94711,-7.09593 5.29391,1.70668 0,0 z m -147.83652,-2.60605 c -3.43703,-8.30539 7.3309,5.284 0,0 z m 273.31718,0.0294 c -2.76297,-6.08006 8.0005,1.67124 0,0 z m -294.58194,-1.89738 c -1.11595,-6.5886 5.00184,2.32572 0,0 z m 288.17758,-0.076 c -2.07392,-5.92516 9.01423,1.71121 0,0 z m -123.22139,-0.45644 c -5.62617,-8.12655 11.17399,3.1243 0,0 z m 116.26575,-0.82765 c -4.28718,-6.92675 7.79982,2.4333 0,0 z m -106.95196,-0.57831 c -3.50057,-7.40511 11.65011,1.41027 0,0 z m 7.51901,-0.5286 c -4.58609,-6.75447 12.18907,1.21097 0,0 z m 9.74905,-0.48852 c -0.49937,-7.18667 9.94159,1.77951 0,0 z m 81.69442,0.085 c -5.50525,-5.32191 7.76046,0.43891 0,0 z m -72.89976,-0.34748 c -2.64431,-4.49264 9.2729,-0.46628 1.57488,0.42559 z m 63.66992,-1.94688 c 3.46574,-5.73337 3.82729,5.31983 0,0 z m -53.06736,0.37667 c -1.9493,-7.39489 9.72842,0.73594 0,0 z m 45.8671,-0.0446 c -2.49476,-5.42268 7.41664,1.72512 0,0 z m -24.54041,-0.44646 c -6.87639,-9.07972 8.1561,-4.0236 0,0 z m 16.4648,-0.46637 c -1.66852,-6.01559 5.82256,2.54318 0,0 z m -88.77203,-0.63322 c 3.03169,-3.6252 0.15564,-0.46788 0,0 z m 59.96444,0.32243 c 1.27095,-7.82333 8.86865,4.02077 0,0 z m -202.83083,-0.53011 c -2.27588,-7.59058 6.58182,4.05039 0,0 z m 221.90242,0.19639 c 0.42661,-5.57449 7.65252,3.28405 0,0 z m 73.13403,-0.99223 c -1.50856,-9.81587 5.45372,2.30741 0,0 z m -312.13146,-2.55222 c -0.0432,-9.87093 4.51668,4.76591 0,0 z m 155.24786,-1.45098 c -3.35874,-10.64067 6.61497,6.26187 0,0 z m -142.14468,-0.88544 c -2.29916,-8.86158 7.02483,3.27624 0,0 z m 298.28544,0.26151 c -2.305,-4.02253 6.31918,0.56581 0,0 z m -80.59974,-1.83524 c -5.09186,-6.05048 4.72589,-1.98394 0,0 z m -221.0619,-3.38736 c -4.31507,-8.66565 7.5341,2.20043 0,0 z m 300.01034,-0.0128 c -0.10168,-3.77378 4.9326,1.18542 0,0 z m -309.71171,-1.15024 c -0.84588,-7.54288 3.97536,2.54737 0,0 z m 150.34932,0.18736 c -1.50038,-4.94067 6.36118,2.04625 0,0 z m 158.90329,-2.37689 c -1.36255,-4.36818 4.79287,1.93785 0,0 z m -161.70956,-0.94173 c -4.33662,-5.62095 5.41893,-1.38258 0,0 z m 80.85645,-2.07309 c -1.38628,-7.69954 7.01864,2.9374 0,0 z m 80.70751,0.016 c -0.982,-5.71293 6.07354,0.63164 0,0 z M 253.4463,656.96375 c -2.67735,-7.1414 6.4744,3.14878 0,0 z m 138.10871,-0.28858 c -3.18359,-8.47247 6.84153,3.48717 0,0 z m 164.10853,-1.6735 c 2.20161,-5.15877 5.8151,2.63354 0,0 z m -309.38998,-1.50852 c -1.17297,-7.81193 4.78207,4.85717 0,0 z m 227.74238,-0.20998 c -3.21223,-6.99155 6.0092,0.12451 0,0 z m -86.41152,-2.1273 c -2.92835,-7.38911 6.38606,4.41121 0,0 z m 167.16459,0.509 c 1.11124,-7.54963 4.48088,2.51303 0,0 z m -304.81088,-1.2272 c -2.47536,-6.81163 5.98008,1.05469 0,0 z m -28.13545,-0.61386 c -0.90477,-5.95257 5.35749,2.01566 0,0 z m 5.45256,-1.3865 c 2.65471,-4.92978 1.5463,4.215 0,0 z m 7.67648,-0.5239 c -1.86065,-6.30517 6.08858,1.20988 0,0 z m 319.51755,-0.1127 c -1.25334,-6.38528 5.87721,-0.9754 0,0 z m -170.89016,-1.40989 c -2.13684,-6.24465 4.66019,1.95576 0,0 z M 244.7181,645.28394 c -5.0873,-7.25187 8.73713,-13.25132 0,0 z m 227.90241,-0.70384 c -4.96507,-8.21545 4.47847,-2.47097 0,0 z m -92.84457,-2.35168 c -2.3822,-4.18879 5.90169,0.70893 0,0 z m -129.57763,-0.77306 c 5.96113,-10.13728 12.51818,-1.79122 0,0 z m 304.37762,-0.13107 c 2.17803,-9.07371 5.26859,3.19037 0,0 z M 241.3205,638.5456 c -3.05897,-6.8076 7.03154,1.90203 0,0 z m 135.31576,-0.15123 c -1.74779,-4.90163 4.97263,1.54629 0,0 z m 92.68045,-2.40528 c -4.03834,-7.54943 7.35901,0.84857 0,0 z m -207.96743,-0.0285 c 1.05743,-7.56376 8.40095,0.18292 0,0 z m -23.00461,-1.35702 c -2.06212,-5.76988 6.469,2.26593 0,0 z m 6.11039,-0.67981 c -0.20122,-5.77038 2.80084,4.42305 0,0 z m 128.0405,0.32973 c -1.73738,-7.19856 5.93925,3.64307 0,0 z m 184.43387,-0.48522 c 2.14164,-9.01867 6.12937,0.88923 0,0 z M 266.7588,632.15118 c -2.34936,-6.04415 6.53506,0.79694 0,0 z m -30.83886,-0.84113 c -1.76773,-6.28946 6.12299,1.35919 0,0 z m 133.056,-0.4711 c -5.28743,-5.83915 6.94801,-0.28579 0,0 z m 98.40768,-0.93588 c -0.71063,-8.37416 5.33769,3.9911 0,0 z m -224.65554,-1.73769 c -1.57139,-5.04659 3.69674,1.43949 0,0 z m 29.5012,0.43533 c -0.38801,-7.24246 11.21847,-1.01074 0,0 z m -39.65334,-1.728 c -2.69734,-6.51645 5.14752,0.27929 0,0 z m 327.50399,-0.0427 c -0.71464,-6.1664 9.07862,-2.60908 0,0 z m -195.98399,-3.02938 c -4.07258,-5.91423 5.80711,0.82473 0,0 z m -84.09701,-0.63139 c 1.76749,-7.31551 5.31273,3.99917 0,0 z m -39.66953,-0.12745 c -2.05616,-10.11803 5.88535,4.2244 0,0 z m -12.44572,-1.56004 c 3.3707,-2.33842 1.04293,-0.8833 0,0 z m 237.9104,-0.41894 c -1.39659,-8.45427 6.25743,2.65154 0,0 z m 96.78185,-0.16358 c 3.01147,-6.6025 4.82676,3.96727 0,0 z m -276.50017,-0.58954 c 1.3595,-7.5911 7.087,0.52339 0,0 z m 74.00847,-1.18301 c -3.88875,-8.61898 6.78592,3.56495 0,0 z m -135.26586,-1.51014 c -1.59416,-6.41337 6.25131,3.17581 0,0 z m 13.89934,-0.66077 c -2.29138,-8.54659 4.39598,1.78173 0,0 z m 327.2081,0.2104 c 0.85087,-7.15438 8.44204,0.33901 0,0 z m -271.76587,-2.17612 c -0.71217,-7.95801 7.03167,2.29238 0,0 z m -73.3287,-1.35971 c -0.98412,-5.49505 5.84605,2.63039 0,0 z m 134.66572,-0.29402 c -0.66562,-4.79821 4.09563,2.37548 0,0 z m 215.86799,-1.8144 c -0.62155,-4.98969 5.85003,1.50126 0,0 z m -334.66813,-1.11673 c -0.72509,-8.05306 4.82141,2.15047 0,0 z m 114.83195,-1.21431 c -3.01996,-7.9591 5.76526,4.10585 0,0 z m 223.59116,0.35917 c -1.88705,-7.30353 8.39037,0.42977 0,0 z m -358.79918,-0.77597 c -1.31911,-7.60866 5.95728,2.99193 0,0 z m 86.01541,0.61943 c -4.14062,-8.37697 7.10943,0.83019 0,0 z m 162.07514,-0.11114 c -4.84486,-6.21758 7.07335,-1.62766 0,0 z m 115.93701,-4.34166 c -0.42469,-6.05151 7.05397,1.30206 0,0 z m -369.77237,-0.76666 c -1.65871,-6.13907 7.08159,2.59287 0,0 z m 158.7368,0.18026 c -0.0395,-4.53832 4.92102,1.42303 0,0 z m -23.05971,-1.09754 c -3.02577,-6.52194 5.56764,2.7605 0,0 z m 30.75059,0.32902 c -0.55649,-5.88007 3.87463,2.46248 0,0 z m -141.89808,-0.63692 c -2.43739,-7.5713 5.09725,0.96273 0,0 z m 127.39981,0.0253 c 0.6545,-4.11171 4.417,2.44519 0,0 z m -53.28941,0.0282 c -2.12328,-7.48177 7.87245,-2.05817 0,0 z m 277.55883,-1.11389 c -9.1999,-2.46319 3.38871,-8.3854 2.99879,0.0516 -0.36439,0.90761 -3.06183,1.67774 -2.99879,-0.0516 z m -230.70549,0.15248 c -0.97232,-4.98538 4.35886,1.48299 0,0 z m 217.16757,-1.0689 c -4.03022,-4.88414 6.20399,-0.0205 0,0 z m 3.65789,-0.32736 c -0.80061,-4.63539 5.11028,1.44459 0,0 z m -370.74242,-0.64726 c -1.71596,-6.83437 5.59116,4.01086 0,0 z m 178.09165,0.45801 c -0.56348,-5.45151 4.90475,0.95514 0,0 z m 77.9967,-0.64806 c -3.06881,-9.55868 7.76367,3.16228 0,0 z m 104.88646,0.34858 c -1.76114,-6.4502 6.55641,2.80197 0,0 z m -6.0872,-0.52586 c -0.64144,-5.23751 5.38711,1.88542 0,0 z m -220.42712,-1.66026 c -1.71765,-5.72947 5.10932,2.47827 0,0 z m 8.41647,0.55092 c -1.57123,-4.88627 3.83126,0.50842 0,0 z m 241.72712,-0.24196 c 6.66723,-8.87686 14.97349,1.40941 0,0 z m -277.64052,-1.24163 c 0.83438,-8.24532 6.02516,1.85193 0,0 z m 242.10475,-0.21837 c -0.45808,-6.31234 6.95338,2.90207 0,0 z m -352.7369,-1.75447 c -1.50748,-7.12964 5.65565,3.93219 0,0 z m 31.01712,0.38381 c -2.78383,-8.29963 5.96851,2.06889 0,0 z m 156.33909,-0.9381 c -1.43137,-3.83458 4.53134,-0.30877 0,0 z m 70.68077,-0.92774 c -3.11001,-6.41052 6.13395,1.00957 0,0 z m -124.8008,-0.90746 c -2.36077,-6.3231 5.34018,2.51804 0,0 z m 3.24003,-0.7248 c -1.477,-4.79552 4.07867,1.77436 0,0 z m 207.68088,-0.33779 c -2.40571,-7.49483 6.94101,1.80406 0,0 z m -191.62245,-0.94407 c -30.60833,-13.23974 -57.89329,-37.19581 -69.43123,-69.14905 -4.97399,-21.52526 -9.85016,-49.52938 13.27268,-62.74157 13.39893,-14.69799 52.74405,7.58419 42.89238,10.19648 -15.41529,-19.04369 -50.95674,-12.53139 -55.81688,12.64002 -6.17864,35.4069 15.23509,69.18592 43.01339,89.31702 14.55875,10.34957 39.12238,28.30875 47.06723,1.22432 -13.69443,-33.7978 20.32877,16.94728 6.74054,6.89866 -5.05471,-8.9894 -15.61035,20.15004 -27.73811,11.61412 z m -156.85122,-1.07228 c 1.63128,-2.76391 0.38348,-1.13047 0,0 z m 33.7401,-1.02186 c -2.27465,-8.37813 5.19774,2.25079 0,0 z m 98.45362,-0.83821 c -16.36781,-9.01625 13.00471,0.31548 0,0 z m 211.98187,-0.91846 c -4.73222,-8.07958 5.62397,1.14675 0,0 z m -84.12043,-0.6433 c -5.14325,-9.3129 7.92144,0.6282 0,0 z m -264.10088,-0.91712 c -2.60054,-6.86946 7.60063,2.58625 0,0 z m 344.4545,-4.05888 c 2.32635,-6.10203 1.84721,4.61132 0,0 z m -307.56746,-0.84042 c -0.83644,-5.99413 3.76928,2.4501 0,0 z m 91.24747,-0.0102 c 1.37651,-3.47546 1.92681,2.57296 0,0 z m -134.08208,-1.72627 c -4.9752,-10.91439 7.56985,4.42239 0,0 z m 266.94608,-0.75111 c -2.75053,-7.05626 7.26912,1.1332 0,0 z m -139.2487,-1.35971 c -1.11374,-5.21465 6.16324,2.91901 0,0 z m 220.49166,-0.91731 c -0.89643,-9.10231 5.72422,0.50668 0,0 z M 398.94212,573.0712 c -0.78357,-6.28156 5.26234,2.40764 0,0 z m -216.66332,-0.76 c -2.72471,-7.19164 7.27785,1.94203 0,0 z m 48.21714,-0.66909 c -2.85631,-6.04284 7.10497,-1.19279 0,0 z m 79.664,-0.17206 c -2.09772,-6.43996 5.41531,1.67558 0,0 z m 142.87571,-1.54621 c -2.47046,-6.6963 6.6242,0.60237 0,0 z m -274.65627,-2.39728 c -2.10413,-6.51868 6.69946,2.04016 0,0 z m 357.31655,-0.35539 c 1.36838,-9.67477 6.70122,2.74198 0,0 z m -306.04575,-0.6233 c -1.54535,-5.81191 4.48132,1.19927 6e-5,0 z m 6.1126,-0.0138 c -0.87357,-4.34596 4.28652,0.79148 0,0 z m 161.56244,-1.0496 c -2.0356,-5.30253 6.07776,1.65867 0,0 z m -222.66928,-1.01619 c -4.73267,-7.65473 6.74083,0.58204 0,0 z m 128.58022,-0.87069 c 0.25416,-4.83056 3.64345,2.57272 0,0 z m -132.65783,-3.89792 c -0.22583,-5.70784 5.08385,4.01511 0,0 z m 70.71761,0.64528 c -0.41756,-3.58289 3.82579,1.11507 0,0 z m 209.45814,-1.68214 c -2.21632,-9.35376 7.29459,3.94374 0,0 z m 87.50185,-0.23373 c 3.59004,-9.40077 6.35487,2.00994 0,0 z m -308.89967,0.0516 c -1.82989,-6.41077 4.43628,0.99813 0,0 z m 70.24368,0.18934 c -1.59698,-4.57234 4.42154,0.51812 0,0 z m 95.376,-1.92656 c -3.42484,-5.75357 7.48688,1.01617 0,0 z m -229.01298,-0.99331 c -3.71259,-7.30321 5.98138,0.76895 0,0 z m 80.2641,-0.016 c 0.24086,-4.63632 4.39821,1.82328 0,0 z m 48.90888,-1.05204 c -1.9391,-5.38787 4.30726,0.27252 0,0 z M 229.4776,551.7345 c -1.42127,-8.22123 4.97127,1.22086 0,0 z m 163.47591,-0.25949 c -0.83931,-7.03293 4.87122,3.3686 0,0 z m -103.15534,0.0356 c -2.42274,-6.00208 5.10425,1.00655 0,0 z m 253.89776,-1.49222 c 5.13834,-10.22915 4.13013,7.31754 0,0 z m -382.99273,-0.0794 c -4.45574,-8.73747 7.90668,4.26998 0,0 z m 91.47613,0 c -0.53225,-4.53961 4.01912,1.66186 0,0 z m 196.65936,-0.0269 c -1.45912,-6.12073 6.03689,1.87497 0,0 z m -164.23256,-5.32474 c -4.75191,-11.66459 6.26533,2.90215 0,0 z m 105.40981,0.0411 c -2.07123,-4.90485 4.32381,0.0928 0,0 z M 155.679,543.99536 c -0.28924,-5.52937 5.13469,2.87324 0,0 z m 394.41693,-0.5585 c 5.17892,-7.87201 7.56573,2.25392 0,0 z m -205.59999,-0.19849 c -10.04213,-5.53355 -23.18191,-8.45646 -3.52795,-6.11971 12.03021,10.76212 -8.03914,-22.09302 1.05204,-29.91604 -8.02186,-10.59532 -39.24374,-35.93406 -9.6821,-18.94271 18.44817,13.20731 13.72205,40.66658 14.48232,55.13164 l -2.32435,-0.15318 z m -113.94529,-0.29485 c -0.41448,-6.36219 4.51085,0.83958 0,0 z m 216.95748,-0.36701 c -0.59196,-5.72843 5.85948,2.36812 0,0 z M 263.2388,539.3512 c -1.21391,-3.73069 4.09542,1.10735 0,0 z m 293.89713,-0.57798 c 2.21936,-5.61053 7.21352,3.19924 0,0 z m -404.26334,-0.45658 c -1.99032,-5.06612 3.40077,2.04758 0,0 z m 235.38335,-1.35257 c -3.45529,-5.76746 6.72284,0.25903 0,0 z m -64.35139,-0.824 c -3.49404,-7.7732 -15.75189,-36.32712 0.70149,-16.62498 0.15265,3.97012 -0.28298,16.64211 -0.70149,16.62498 z m 121.85712,-0.53386 c -5.56184,-6.12733 6.85946,0.71663 0,0 z m 118.04366,-0.23216 c -9.25718,-9.08735 9.34508,-1.45288 0,0 z m -6.9894,-0.60438 c -3.36972,-7.64887 9.65642,-4.04766 0,0 z m -7.00106,-0.73316 c -8.52839,-13.64794 7.81984,0.7627 0,0 z m 17.88106,0.39261 c -1.03294,-8.86232 6.79647,-0.28293 0,0 z m -287.96739,-0.78038 c -1.67437,-5.33731 4.10634,1.39991 0,0 z m 239.01865,0.14633 c -0.15116,-5.93597 6.50349,0.74618 0,0 z m 24.84323,-0.37344 c -5.72521,-1.04487 5.73896,-1.26422 0,0 z m -275.20114,0.45908 c -1.52904,-5.13381 5.89695,-1.07232 0,0 z m 258.10665,0 c -1.14634,-4.47784 6.71994,-0.43999 0,0 z m 9.71078,-0.20599 c -1.44964,-4.73999 5.64929,1.14585 0,0 z m -388.7709,-0.79958 c -3.80351,-9.93929 7.14372,4.37046 0,0 z m 329.20509,-0.0916 c 0.8606,-7.25372 5.73116,3.23862 0,0 z m -7.06925,0.18909 c -3.5769,-4.18064 6.20829,-0.6554 0,0 z m 33.72429,-0.0253 c -0.0194,-5.80221 7.19369,0.67782 0,0 z m 7.65334,-0.0282 c -0.11687,-6.17296 4.79561,1.21759 0,0 z m -20.84477,-0.62381 c -0.56818,-5.15547 5.40044,0.86659 0,0 z m 81.96722,0.0672 c 2.64831,-8.10091 8.59095,1.26172 0,0 z m -341.20007,-0.29799 c -1.22229,-9.52984 4.80348,1.89601 0,0 z m 252.04108,-0.35184 c 0.64769,-5.02279 6.0416,1.03144 0,0 z m 12.81686,0.0202 c -0.19811,-4.40939 5.33308,1.73887 0,0 z m 57.94959,-0.24797 c -2.95572,-5.2836 5.90083,1.4253 0,0 z M 385.285,531.26784 c -2.43222,-5.7593 6.27407,0.7309 0,0 z m 76.02172,-0.36359 c -0.4547,-4.88727 5.8721,1.66233 0,0 z m -12.52288,0.0632 c -4.26574,-5.50373 6.31163,-0.83652 0,0 z m -11.9679,-0.37686 c -4.09259,-5.26834 5.77379,-1.55886 0,0 z m 16.31206,-0.51744 c 0.0378,-6.79773 4.9775,3.11227 0,0 z m 125.30041,-0.32503 c -0.5588,-5.81594 5.25975,2.71719 0,0 z m 7.74751,-0.60889 c -2.33566,-5.92257 6.13473,1.79525 0,0 z m -3.376,0.0907 c -1.44726,-4.44245 3.77112,0.88885 0,0 z M 426.49594,528.9483 c -2.98284,-7.30953 9.60991,2.03437 0,0 z m -8.176,-0.35837 c -0.56354,-6.58775 6.82395,1.51844 0,0 z m -9.28,-0.32 c -0.73041,-6.83176 7.70415,0.18497 0,0 z m 33.97033,-0.4408 c -0.96341,-8.74908 6.65739,3.84595 0,0 z m -166.51433,-0.55942 c 3.66295,-5.71651 4.18493,2.49354 0,0 z m 266.46232,0.17312 c -1.98922,-6.68644 5.28004,2.29161 0,0 z M 143.49,527.25956 c -4.57194,-6.93142 6.22584,0.38067 0,0 z m 446.55162,-0.39152 c -4.54802,-5.27524 7.37388,0.35228 0,0 z m -195.31701,-0.59635 c -0.87922,-6.20627 6.10054,2.02333 0,0 z m 9.19533,-0.24176 c -1.37441,-6.46331 7.68605,0.59766 0,0 z m 155.27874,0.0361 c 0.27309,-2.43508 1.59329,1.25668 0,0 z m -286.3294,-0.18547 c -0.27401,-5.29363 4.86777,0.50911 0,0 z m 116.22212,-0.42788 c -1.19702,-5.18319 8.1053,1.58916 0,0 z m 206.36452,-0.56124 c -4.65131,-4.41375 7.34279,-0.20746 0,0 z m -213.04859,-1.11739 c -2.50906,-14.72248 7.59396,7.90232 0,0 z m -150.00739,-0.304 c -1.86776,-5.90225 5.20759,0.425 0,0 z m 305.97637,-0.72381 c -6.77188,-8.79218 8.3129,1.79777 0,0 z m -397.80036,-1.30189 c -3.47899,-5.20676 4.89946,-0.27708 0,0 z m 161.03999,-0.5368 c -17.06513,-12.5096 4.373,-51.55851 9.57661,-39.40742 -20.55852,3.65894 -6.07001,30.02188 -9.57661,39.40742 z m -1.28,-4.7335 c -1.23018,-1.14727 -0.8202,1.18525 0,0 z m 139.49475,4.37946 c -1.05926,-6.19679 6.22677,2.85124 0,0 z m -165.61602,-0.34224 c -1.76182,-9.76575 5.01986,-0.79549 2.2e-4,0 z m 260.72295,-2.51722 c -1.33875,-9.45832 7.28692,3.27357 0,0 z M 137.6455,516.84359 c -3.79364,-6.48919 4.76517,0.63602 0,0 z m 95.8333,-0.21239 c -1.30068,-9.49422 5.61956,1.54695 0,0 z m 328.61713,-1.47408 c -16.32347,-8.16247 0.18733,-42.52044 -4.82919,-11.40765 -0.3899,3.29598 10.40116,10.81638 4.82919,11.40765 z M 380.2522,514.52231 c -1.98838,-6.15862 4.75708,1.0461 0,0 z m 58.05708,0.1584 c -1.24094,-7.29126 8.28583,0.5404 0,0 z m 96.16393,-3.64199 c -0.28638,-6.41188 6.68053,2.35207 0,0 z m 45.27875,-1.39408 c 5.76862,-22.3895 40.36726,-7.32105 11.01224,-7.22569 -4.67247,0.29067 -6.54167,8.30892 -11.01224,7.22569 z m -445.92023,-0.61123 c -1.67038,-5.44465 5.8935,2.66309 0,0 z m 138.66865,0.11462 c -0.73896,-8.55899 4.56394,2.88267 0,0 z m 103.25956,-0.71798 c -2.58674,-6.0471 5.76679,0.54056 0,0 z m -139.83066,-0.63066 c -1.11673,-11.84443 5.1125,1.40548 0,0 z m 201.58083,-2.66915 c -0.91215,-7.27286 6.12635,2.91283 0,0 z m -306.59563,-0.93385 c -1.41546,-6.40788 4.8409,-0.003 0,0 z m 402.62145,-0.52983 c -2.1781,-4.77357 5.71584,-1.34471 0,0 z m -160.04972,-2.40672 c -1.32001,-6.39036 4.87405,3.19447 0,0 z m -101.72627,-1.46979 c -1.97504,-4.73349 4.71984,-0.35973 0,0 z m -143.42738,-1.22416 c 0.87835,-7.40912 4.5255,3.90946 0,0 z m 307.98482,0.72326 c -5.2523,-5.62359 5.54166,-2.37787 0,0 z m -198.20824,-0.8592 c -1.26669,-8.11658 5.67822,-0.59315 0,0 z m -112.13896,-2.92208 c -1.73227,-8.30658 5.7183,1.80036 0,0 z m 407.05432,-1.04016 c -2.34843,-7.07184 6.19312,-1.14236 0,0 z m -261.26456,-1.07766 c -1.01846,-8.55108 5.60302,2.1566 0,0 z m -148.82993,-1.616 c -3.65012,-9.81818 5.68834,0.19572 0,0 z m 243.98839,-1.0472 c -2.89217,-5.55506 18.14699,0.6142 0,0 z m 66.07325,-1.39485 c -0.70383,-8.25554 4.56418,2.42484 0,0 z m -191.61571,-0.24989 c -1.00639,-8.00046 5.02552,0.0105 0,0 z m 135.93462,-0.89046 c 0.52608,-7.02261 7.61496,0.79981 0,0 z m 156.15663,-1.75658 c -1.33884,-5.62581 5.77953,1.23362 0,0 z m -412.7051,-0.40496 c -5.4458,-7.27594 5.84064,-4.24402 0,0 z m 153.23785,-1.28006 c -1.85012,-6.56587 5.43403,-0.13742 0,0 z m 110.2256,-0.20118 c -1.07875,-10.59546 9.34209,2.68242 0,0 z m -19.38874,-0.901 c -2.73727,-9.76272 5.68362,2.65288 0,0 z m 168.83244,-1.73481 c -0.56318,-6.65104 4.58414,1.54618 0,0 z m -289.59996,-0.19235 c -1.28878,-7.30753 5.91819,0.0616 0,0 z m 146.98666,-1.86666 c 3.01911,-8.00661 5.48621,5.70746 0,0 z m 38.59933,0.3136 c -3.28006,-8.50546 6.58872,1.26099 0,0 z m -313.23932,-0.82157 c -2.99375,-17.1208 6.6215,4.98165 0,0 z m 158.93888,-2.02224 c 1.0236,-6.66054 3.76157,3.40567 0,0 z m 122.22658,-0.0534 c 0.5214,-6.27069 6.63164,2.9655 0,0 z m -36.48259,-2.51773 c -0.10774,-4.91971 4.71209,1.47526 0,0 z m -114.55995,-1.33245 c 1.088,-8.82493 3.89339,3.50306 0,0 z m 181.20024,-0.46947 c -2.62886,-7.26832 6.00249,2.07548 0,0 z m -149.86414,-1.46026 c 0.61748,-4.96753 4.16277,2.06122 0,0 z m 255.84585,-0.26966 c -0.52425,-8.633 5.55031,3.28106 0,0 z m -75.27762,-0.86503 c 0.27659,-4.5268 4.31808,2.21997 0,0 z m 8.03322,-0.12758 c -2.27581,-4.3403 7.34138,1.173 0,0 z m -15.34048,-0.0348 c -1.75737,-3.81112 4.54275,0.25114 0,0 z m -41.76,-0.63136 c -1.78931,-5.30341 7.45656,1.76573 0,0 z m 16.98621,-1.25286 c 0.75605,-3.49558 2.91855,2.05454 0,0 z m 50.28704,0.0594 c 0.87351,-4.39758 6.63608,1.71012 0,-4e-5 z m -118.80925,-0.25859 c -1.57652,-6.54564 5.80673,0.924 0,0 z m 85.70877,-0.0806 c -0.42649,-4.79343 4.50062,1.81657 0,0 z m -6.71098,-1.10477 c -1.13215,-6.24019 7.5204,3.22036 0,0 z m -187.38855,-1.116 c -1.07466,-9.97342 6.345,5.08699 0,0 z m 284.37503,0.34359 c -2.25546,-5.96739 4.71156,0.46988 0,0 z m -253.08827,-0.43012 c -1.20941,-4.21423 5.16616,-0.93565 0,0 z m 138.05334,-0.3214 c 0.70465,-5.25956 6.35267,-0.76255 0,0 z m 66.73066,-0.17066 c -0.13259,-5.33536 7.57912,-2.7032 0,0 z m -58.70135,-0.97604 c -2.78561,-6.49773 8.30008,1.26402 0,0 z m 66.53069,-2.69334 c 0.95185,-5.20944 6.22937,0.65546 0,0 z m -209.16996,-0.9026 c -0.42404,-3.7128 3.19702,1.27132 0,0 z m 68.66958,-0.30668 c -0.25416,-7.55539 5.557,3.69507 0,0 z M 251.85594,458.2769 c 2.81818,-7.76098 3.30677,5.73251 0,0 z m 248.12563,0.80301 c 1.43317,-5.31178 5.48242,0.59501 0,0 z m 33.21836,-0.24986 c -2.17752,-6.13851 7.57327,0.23314 0,0 z m -245.92332,-1.58522 c -2.18275,-4.06411 4.43544,0.5323 0,0 z m 131.28653,-0.8568 c -1.79562,-6.16636 6.42698,1.5857 0,0 z m -71.9232,-0.11798 c -1.40359,-4.71029 5.04051,0.44101 0,0 z m -56.26162,-2.63866 c 0.62883,-3.75041 3.47301,1.67314 0,0 z m 215.77096,0.24932 c -0.87152,-5.63768 8.54193,-1.79225 0,0 z m -250.37334,-1.06042 c -1.08774,-8.27258 5.68467,-1.3812 0,0 z m 84.61664,-0.90365 c -2.1605,-5.99691 4.67378,1.34097 0,0 z m -44.78861,-1.86125 c -1.25222,-4.53325 5.73651,0.22167 0,0 z m 115.79011,-1.47254 c -0.55218,-7.02936 6.5017,2.72876 0,0 z m 121.34351,-0.31069 c 0.34432,-5.9557 4.4798,1.12713 0,0 z m -198.11736,-0.73811 c 0.76484,-4.34899 3.88776,2.3725 0,0 z m -33.80061,-0.6361 c 3.34018,-2.78594 -0.16293,-0.73685 0,0 z m -42.16368,-0.39382 c -1.50996,-8.14027 6.85789,-5.00842 0,0 z m 68.4,-0.57008 c 0.044,-4.61068 6.44138,2.3569 0,0 z m -20.58666,-0.37334 c -0.30766,-5.56018 5.24562,-0.0117 0,0 z m 209.28,0 c -0.12213,-7.31611 5.33401,-0.21778 0,0 z m -194.06214,-0.9248 c -2.02727,-4.81516 5.6049,1.54912 0,0 z m -7.10781,-0.9378 c -0.83788,-3.67254 4.48287,1.38779 0,0 z m 89.19661,-0.7512 c -4.58869,-6.58409 6.62776,1.84379 0,0 z m 3.68,0.6952 c -1.87694,-7.1236 5.70181,-0.56698 0,0 z m 123.44344,-3.4639 c -0.62317,-4.97147 5.00799,1.15142 0,0 z m -12.35664,-0.29526 c 0.53406,-5.40557 4.66581,0.96062 0,0 z m -124.4788,-0.9569 c -3.40391,-8.17498 6.90545,4.91695 0,0 z m 89.46473,-0.0227 c -8.24897,-4.78864 -32.509,2.48512 -18.56368,-10.68462 18.29172,-13.14588 32.26974,-32.59721 50.83011,-30.06627 -15.93043,7.85303 -0.71781,33.92822 -1.97219,32.08154 -10.80757,-2.15838 -20.09314,10.71258 -30.29424,8.66935 z m 1.92727,-4.85309 c 20.61571,6.66736 11.28988,-29.08894 0.27232,-18.78867 -12.8147,12.24817 -31.16123,20.35269 -0.27232,18.78867 z m 16.60953,-9.07621 c 5.37434,-13.60151 -8.95151,-0.1191 0,0 z m 2.91047,-14.89888 c -1.56387,-3.73285 -1.0587,4.29355 0,0 z m -3.61421,-7.00282 c 7.4229,-7.30643 -8.92667,5.14084 0,0 z m -238.46094,34.50084 c -2.06708,-5.91674 5.06405,1.09765 0,0 z m 139.04641,-2.33812 c -0.83941,-10.0377 4.36193,2.39729 0,0 z m -14.57126,0.0687 c -7.89669,-5.38529 5.32353,-1.27547 0,0 z m -121.42409,-1.33999 c 0.26123,-5.86282 4.16863,2.78834 0,0 z m 256.78865,0.17318 c -1.12503,-6.25097 5.50664,1.22529 0,0 z m 7.77741,-3.56246 c 0.88535,-8.10418 4.74083,2.86678 0,0 z m -152.66197,0.0896 c -3.57262,-3.88845 5.68075,-0.14962 0,0 z m 146.88079,-0.51946 c -1.40734,-9.3404 6.92466,2.95662 0,0 z m -131.13084,-1.6694 c 2.06004,-8.98558 18.95356,1.05078 0,0 z M 270.5988,428.31117 c -1.39801,-6.27975 5.65338,0.97399 0,0 z m 98.52258,-1.88259 c -2.48385,-6.4851 4.92896,3.68259 0,0 z m 19.21456,-0.7639 c -6.09676,-6.83811 8.27171,0.76779 0,0 z m -113.04,-1.88477 c -0.93358,-4.99241 6.403,-1.66823 0,0 z m 255.8212,-0.58387 c -3.83436,-5.53991 6.50412,2.21412 0,0 z m -150.59797,-0.34519 c -1.78138,-6.41003 7.71447,3.14994 0,0 z m -21.21437,-0.36029 c -5.09485,-4.98462 7.34589,0.26221 0,0 z m 16.55114,-0.0301 c -10.46743,-6.4369 6.50248,-3.12024 0,0 z m 22.67053,-3.09987 c -0.47606,-11.10235 5.75493,1.3713 0,0 z m 129.50542,-0.75517 c 0.1047,-6.70731 4.91003,3.85377 0,0 z m -177.21595,0.27757 c -3.12898,-4.44088 4.86542,0.2893 0,0 z m 15.36,-1.90537 c -3.89076,-6.38607 8.29964,1.98111 0,0 z m -83.536,-0.0676 c -1.14464,-5.52313 6.99355,0.718 0,0 z m 58.87482,-1.54538 c -3.27585,-5.69113 7.34702,2.06166 0,0 z m 187.79969,-0.12828 c -1.78093,-7.74167 6.17093,1.38251 0,0 z m -239.25386,-2.23908 c -0.30466,-5.78468 6.35271,1.78566 0,0 z m 68.51535,-0.0826 c -5.61409,-8.31259 9.312,1.13214 0,0 z m 40.38032,-0.35401 c -1.39915,-9.86844 7.80415,0.0606 0,0 z m 10.72368,0.18934 c 12.9257,-16.677 34.26025,-29.80057 53.39757,-40.608 17.28392,-18.3149 61.38935,1.38309 21.16406,9.1767 -24.04547,1.48629 -49.02467,9.39672 -66.78563,26.5224 -3.09298,-4.20627 -5.14879,7.76 -7.776,4.9089 z m -75.58707,-1.17053 c -4.50463,-5.31657 5.95131,0.77042 0,0 z m 195.5795,-0.32381 c -3.46449,-6.58694 5.11103,-2.15985 0,0 z m -231.31776,-1.0639 c -3.32464,-4.12208 5.75794,-0.47372 0,0 z m 25.74133,-1.14291 c -2.18638,-5.20002 9.87664,-1.13315 0,0 z m -19.29884,-1.1761 c -0.0216,-5.16692 5.78787,1.47212 0,0 z m 44.81884,-0.97469 c -9.6451,-9.44413 10.97343,1.48784 0,0 z m -35.46665,-1.0174 c 0.32873,-6.26074 7.44656,2.06827 0,0 z m 214.81432,-3.3936 c -2.25639,-8.02452 5.28272,2.12567 0,0 z m -187.76994,-0.5648 c -6.17509,-9.44898 10.14166,1.41262 0,0 z m 60.85337,0.15971 c 1.05624,-7.15307 5.18454,0.93432 0,0 z m -69.36777,-5.45034 c -3.57819,-10.26807 6.99874,1.80802 0,0 z m 195.40066,-1.80159 c -3.02442,-8.80843 7.86601,-0.41825 0,0 z m -123.72332,-0.36131 c -0.70353,-8.2946 6.88759,0.11429 0,0 z m -77.30067,-2.35802 c -6.93129,-7.40994 6.00013,-2.88396 0,0 z m -6.93949,-5.55427 c -5.2765,-8.02074 7.97967,3.53996 0,0 z m 87.3848,0.52259 c 1.53291,-7.57926 5.63867,0.67318 0,0 z m 117.30965,-2.91312 c -1.26406,-6.55032 4.5034,3.77682 0,0 z m -211.72366,-1.86317 c -6.87429,-11.17789 9.82841,6.41543 0,0 z m 209.1772,-2.59964 c -0.86959,-4.53307 5.09297,2.29643 0,0 z m -107.51717,-2.00906 c 3.50785,-7.63255 9.7888,-0.65976 0,0 z m -106.96522,-1.12 c -5.14134,-6.56016 -2.40933,3.95416 0.87336,0.69273 z m 207.44665,-2.30464 c -1.0235,-3.97722 3.13783,1.50561 0,0 z m -91.29961,-2.4576 c -1.48076,-4.26635 7.53644,-1.60407 0,0 z m -126.98226,-1.59866 c -4.39361,-11.60416 6.12891,3.76723 0,0 z m 213.63826,-1.99283 c -1.75805,-3.51024 4.2723,1.21402 0,0 z m -81.9305,-0.20845 c 1.07815,-5.3698 5.49104,0.70643 0,0 z m -136.51625,-4.95865 c -5.18944,-7.46026 6.67044,1.50392 0,0 z m 145.9576,-1.39018 c 5.81788,-6.55733 4.34475,4.4328 0,0 z m 65.344,-0.11299 c -1.0816,-3.25712 3.65788,1.39371 0,0 z m -10.384,-2.86794 c -3.12938,-4.20851 5.65626,1.17826 0,0 z m -44.016,-0.33206 c 0.11636,-5.43837 7.12764,2.05971 0,0 z m -163.91406,-2.03949 c -0.88045,-7.80149 4.41548,5.37995 0,0 z m 175.59479,0.72231 c -2.61634,-5.58886 7.03621,0.55777 0,0 z m 17.13527,-0.89684 c -3.22098,-6.20417 7.32369,1.89448 0,0 z m -197.77982,-5.38902 c -3.17329,-4.99049 -1.84249,2.05319 1.28,0.94704 z m -4.50485,-3.97536 c -4.43498,-10.09225 5.29105,2.93592 0,0 z m -5.53951,-6.5176 c -4.37163,-8.24534 5.85317,3.44646 0,0 z m -4.1134,-5.6 c -4.37851,-10.88708 6.65939,5.28968 0,0 z m -4.60776,-5.56602 c -2.87061,-8.35173 5.71923,5.14736 0,0 z m -5.58697,-7.53702 c -3.63473,-9.02383 7.13085,4.5805 0,0 z m -3.65243,-5.35794 c -4.987,-9.26538 6.11627,2.80787 0,0 z m -3.71347,-5.7484 c -2.53711,-8.24327 5.53413,3.64803 0,0 z m -3.00932,-5.7866 c -4.63569,-11.16508 5.59366,0.73191 0,0 z m -2.86772,-6.964 c -5.2247,-9.0289 5.47385,1.24395 0,0 z m -3.75608,-7.52 c -2.91389,-8.07353 5.51696,2.9127 0,0 z m -1.47652,-5.67808 c -4.91046,-6.29073 5.59307,-0.65296 0,0 z"
       id="path23306" />
  </g>
</svg>
