<?xml version="1.0" encoding="UTF-8" standalone="no"?>
<!-- Created with Inkscape (http://www.inkscape.org/) -->

<svg
   version="1.1"
   id="svg23718"
   width="793.59998"
   height="1122.88"
   viewBox="0 0 793.59998 1122.88"
   xmlns="http://www.w3.org/2000/svg"
   xmlns:svg="http://www.w3.org/2000/svg">
  <defs
     id="defs23722" />
  <g
     id="g23724">
    <path
       style="fill:#000000;stroke-width:0.32"
       d="m 221.55527,965.42628 c 20.7421,-16.03654 43.5427,-33.49664 42.64838,-63.00886 4.27789,-38.70433 6.01053,-78.35501 2.07229,-117.04224 -8.23256,-22.96169 -30.22817,-37.59247 -47.48041,-53.65622 -19.9476,-16.06051 -49.40099,-4.27684 -67.63815,-22.90154 -17.1115,-12.45372 -11.96995,-36.7578 -1.4027,-52.20289 14.17626,-18.39959 -11.81596,-41.46357 7.45926,-55.84592 -12.68223,-15.59564 16.90792,-49.13116 -21.77701,-47.64185 -39.412676,-9.48425 -9.38887,-45.16174 9.71685,-58.19433 18.83794,-20.60507 44.76894,-33.30451 63.37478,-53.84234 -1.62598,-10.24791 19.67501,-53.80342 12.79772,-33.32099 -5.35232,14.82135 -1.75807,33.16064 -16.73927,42.99177 -27.31618,22.04438 -55.97251,42.54862 -79.1107,69.20756 -23.96014,28.78564 25.2025,26.59012 34.07463,43.87862 6.91297,12.70589 37.49447,1.3354 24.17233,11.28028 -14.10318,-12.08656 -41.06341,5.09819 -14.0567,12.41521 5.20354,12.95024 29.71797,20.32694 27.2577,28.48944 -11.79514,0.062 -39.87664,4.90637 -41.87551,12.74512 -3.37656,15.82014 34.70411,10.16117 3.96396,11.35744 -2.68896,18.40748 -25.0888,36.94638 -13.48752,57.48243 14.79442,24.81484 46.48155,16.17109 69.01126,27.32493 11.15787,5.59784 22.77228,20.27523 34.32304,29.63507 18.02282,14.31532 26.43349,38.63265 21.32286,60.96 0.41158,38.98417 1.33601,79.32313 -10.02501,116.8288 -9.96564,15.62171 -17.89091,21.89324 -32.10593,30.82493 -1.7337,1.56265 -3.8608,3.04773 -6.49615,2.23558 z m -59.1516,-345.27292 c 19.89973,-2.10382 28.52781,-11.74699 3.43029,-13.7744 -11.84095,-5.53249 -25.62094,20.17607 -3.43029,13.7744 z m -9.18775,-3.0626 c -0.25929,-1.92692 2.47634,0.45369 0,0 z m 27.87917,-12.33456 c -11.81485,-30.18927 -45.29895,-11.75975 -8.84127,-1.52928 1.76884,-2.96333 7.61176,5.59984 8.84127,1.52928 z m 64.38082,348.77332 c 5.29136,-3.63711 10.25517,1.92777 0,0 z m 9.93273,-0.21748 c 4.22107,-5.92702 11.538,1.96518 0,0 z m 29.66665,-0.52192 c 3.27748,-5.91149 11.90268,1.73851 0,0 z m -7.37965,-0.36454 c -0.88531,-3.48192 10.44037,-20.57002 3.68849,-0.35501 z m -14.48358,-0.44675 c 5.8704,-3.26116 9.04193,1.88708 0,0 z m 33.46385,-0.95863 c 8.36005,-2.86783 9.06899,3.19678 0,0 z m 13.87572,-0.12278 c 5.66713,-4.50687 10.32271,3.0451 0,0 z m 13.77572,-1.23904 c 5.44976,-6.61394 13.11081,3.88658 0,0 z m 13.08053,-0.42285 c 3.72701,-5.38385 11.79361,1.12931 0,0 z m 8.50086,-0.81773 c 1.13125,-4.85492 15.77095,0.64129 0,0 z m 340.51255,-2.98768 c -30.35245,-26.38176 -58.66927,-55.02232 -86.89641,-83.61759 -9.23139,-7.9548 -16.79916,-23.45386 -26.87981,-40.24052 -14.12683,-34.29425 -22.5823,-71.44408 -24.41318,-108.50184 -5.39106,-27.7622 16.60255,-47.76221 35.65359,-63.77275 41.07243,-36.75261 69.43842,-89.9385 71.42252,-145.09683 5.03407,-24.18574 -1.83946,-49.37753 -7.44238,-73.08887 C 637.64018,402.98013 621.87876,377.3803 600.67587,356.26085 582.14975,333.99948 556.798,319.255 532.03586,305.29742 c -10.35965,-6.05199 -27.54194,-6.99926 -33.54678,-17.05528 -2.6679,12.38692 -8.82456,-5.67178 -22.1553,-4.08302 -41.01153,-8.29562 -83.36203,-8.63917 -124.77795,-3.50169 -33.52656,7.62065 -71.06401,18.36754 -91.02879,48.64002 -9.58907,16.57107 -10.35967,36.67962 -22.02923,52.01866 -7.3618,16.06074 -21.53667,24.34683 -5.54058,1.71149 19.13805,-22.3678 14.59777,-59.02158 42.72637,-74.99659 34.2427,-21.56282 73.81526,-33.60446 114.27255,-34.3701 48.8408,-0.43965 99.38212,3.57118 143.29654,26.83654 40.44309,20.04416 74.73321,52.47858 99.28081,90.01786 19.59402,30.44179 26.82847,67.26982 28.10179,102.78214 -3.42147,31.50919 -7.94343,63.88876 -23.15946,92.01757 -16.77934,36.35763 -48.09491,62.62651 -76.23145,89.93562 -16.93043,19.877 -7.93021,48.25307 -6.34414,71.64681 7.31244,36.9995 17.62377,75.60276 43.977,104 23.7011,30.18335 51.97285,56.53821 79.8066,82.81755 -0.68148,1.68681 21.11389,17.08777 7.73745,11.71512 z m -326.78538,0.32941 c 3.26093,-5.70015 14.75652,1.7348 0,0 z m 16.70666,-3.19817 c 5.9714,-7.259 6.60788,4.43654 0,0 z m 10.16508,-1.29885 c 10.03866,-13.87701 14.04423,-0.79706 0,0 z m 10.08826,-2.05507 c 5.68666,-6.15803 32.41428,-8.84 0,0 z m -112.17904,-1.15575 c -1.33984,-12.93388 6.22213,-8.1472 0,0 z m 130.76947,-5.72806 c 6.391,-7.17638 5.90861,2.15587 0,0 z m 10.18989,-3.26621 c 6.73702,-6.03584 8.08401,1.67055 0,0 z m -31.35152,-3.04 c 3.16117,-13.49523 1.04172,12.64228 0,0 z m -107.03822,1.6 c 2.11854,-11.47807 7.28047,-7.18289 0,0 z m 151.23688,-1.7015 c 4.2542,-5.82135 14.99673,-3.09885 0,0 z m 11.30588,-4.83184 c 8.65995,-9.52651 11.01774,-1.57667 0,0 z m -54.1782,-3.4682 c -0.65822,-9.58604 5.70043,-6.29398 0,0 z m 65.24486,-1.67731 c 3.06418,-6.87749 14.29121,-2.85168 0,0 z m -170,-0.67104 c 1.74853,-10.93847 8.53857,-6.77484 0,0 z m 184.21334,-5.38345 c 6.47678,-7.87818 12.50053,-2.80639 0,0 z m -78.81696,-3.7849 c 0.54848,-14.94855 5.33064,-2.24253 0,0 z m -101.43781,-1.91437 c 3.06078,-14.30209 7.36204,-4.75063 0,0 z m 191.21916,-0.67421 c 4.60056,-7.57183 12.8568,-2.70509 0,0 z m 11.28627,-4.99718 c 0.63268,-7.51646 14.25685,-4.11087 0,0 z m 8.66925,-5.59459 c 2.44725,-7.2295 12.6717,-2.84851 0,0 z m -106.43991,0.005 c -1.32984,-9.61733 3.81644,-3.14946 0,0 z m -99.56139,-2.42666 c 2.36836,-10.64484 2.01052,6.72325 0,0 z m 216.90965,-5.50467 c 3.07042,-5.12269 9.6376,-2.18411 0,0 z m -213.88243,-2.33533 c 1.60873,-14.8997 4.80066,1.68056 0,0 z m 97.45865,-0.70029 c -0.79659,-8.85018 3.85282,-5.51787 0,0 z m 124.75226,-1.42233 c 6.32063,-7.2418 9.82462,-2.64829 0,0 z m 10.88,-6.32576 c 6.35842,-6.35502 9.37158,0.18035 0,0 z m -228.51163,-4.51162 c 2.34332,-14.02563 2.56262,3.86633 0,0 z m 94.4379,-1.50288 c 2.99227,-13.54271 0.83898,8.47196 0,0 z m 144.07699,2.00954 c 3.13215,-7.74794 13.83114,-1.55276 0,0 z m 8.67579,-5.14666 c -10.74246,-13.70834 5.59607,0.3812 0,0 z m 2.63088,0.08 c 7.04233,-5.77147 9.45077,0.33327 0,0 z m 8.78755,-4.02016 c 8.10387,-6.15951 11.03575,-0.40965 0,0 z m -254.86756,-1.58989 c 3.24469,-13.43802 4.81086,0.22658 0,0 z m 91.96483,-1.50995 c -0.31174,-8.04691 4.13802,-0.57121 0.3001,2.16 z m 176.26807,0.20563 c 0.9096,-5.76776 15.42199,0.24214 0,0 z m -30.90647,-2.77053 c -7.65024,-9.79657 -0.7247,-9.32709 0.75358,-0.70201 z m -144.39731,-6.92019 c 1.10031,-14.98909 5.34439,-2.30103 0,0 z m -88.56918,-1.4103 c -0.11016,-8.69052 8.49306,-8.51837 0,0 z m 224.85286,-6.54461 c -8.12559,-16.37395 6.71905,6.66603 0,0 z m -267.6128,0.6111 c 9.23517,-3.99086 10.29914,0.52806 0,0 z m 10.28831,-0.61078 c 2.94255,-4.09302 9.39791,0.73375 0,0 z m 8.07102,-1.26627 c 5.89476,-3.21225 9.22042,1.71199 0,0 z m 10.62689,-0.4945 c 4.3793,-4.60002 11.9711,2.4514 0,0 z m 10.05378,-1.05587 c 3.83161,-3.4128 10.33151,1.59834 0,0 z m 7.46789,-2.0841 c 1.41907,-13.87618 6.23986,-4.50987 0,0 z m 87.38705,-1.78009 c -1.83984,-10.89474 3.76724,-4.56911 0.97056,-0.0816 z m 128.01872,-4.24528 c -8.08497,-14.03182 5.63298,2.58905 0,0 z M 407.21224,824.5508 c 0.38028,-12.39556 5.01927,-4.84306 0,0 z m -83.44295,-1.06697 c 0.0735,-12.34514 7.32822,-6.44255 0,0 z m 204.73718,-5.62666 c -9.89496,-15.68108 5.85729,1.66528 0,0 z m -118.80941,-5.44634 c -1.03171,-11.56549 4.13428,-3.85988 0,0 z m -82.80454,-2.04809 c 4.21147,-18.37056 6.06139,0.26713 0,0 z m 195.11456,-5.96391 c -6.62776,-16.04458 4.4543,-0.30737 0,0 z m -110.64272,-3.86844 c -0.8429,-7.76063 4.34083,-7.82474 0,0 z m -80.96652,-3.27098 c 5.98473,-15.90636 6.07612,1.55584 0,0 z m 187.40885,-4.65875 c -6.66343,-11.4919 3.86952,-1.35398 0,0 z M 412.07594,788.6461 c 0.0938,-15.48644 5.54128,-1.18697 0,0 z m -77.32003,-2.36474 c 3.5807,-15.33237 5.5284,1.00827 0,0 z m 177.27504,-10.02419 c -8.16015,-21.93031 6.86074,3.85128 0,0 z m -172.81952,0.48 c 0.78046,-14.37964 8.66494,-12.74568 0,0 z m 75.06605,-1.6728 c 0.0571,-11.26289 4.00845,-4.18307 0,0 z m 1.40054,-11.2872 c 0.0682,-13.49274 5.59446,-2.31022 0,0 z m 92.58848,-0.96352 c -4.53988,-12.03742 2.872,-9.8929 0,0 z m -164.34252,-1.34659 c 2.90177,-14.19308 6.14805,-0.84137 0,0 z m 72.97289,-8.69562 c -0.72303,-7.92853 5.70378,-7.25008 0,0 z m -69.13747,-2.37677 c 3.58312,-13.56763 4.44507,-0.0542 0,0 z m 157.3823,-0.51478 c -2.74922,-9.78887 2.89983,-4.29808 0,0 z m -87.02169,-9.0561 c 1.72893,-13.90861 4.58905,-4.30147 0,0 z m -65.9913,-1.4888 c 3.32694,-16.75918 2.50362,3.71441 0,0 z m 151.3312,0.77818 c -7.4894,-12.23912 6.79584,-1.83777 0,0 z m -1.74195,-10.896 c -1.74338,-17.82674 5.24561,-1.75897 0,0 z m -145.84205,-1.33293 c 6.1762,-20.26577 1.35097,7.70626 0,0 z m -126.86965,-1.13033 c 3.42867,-4.43531 13.73718,0.0279 0,0 z m -8.17035,-0.80548 c 3.77639,-3.87164 10.52543,2.59168 0,0 z m 199.80534,0.0138 c -0.20894,-9.765 4.02696,-1.83456 0,0 z M 238.63408,724.8703 c 3.55003,-2.71578 8.49599,1.06127 0,-1e-5 z m 32.36321,-0.13312 c 2.18031,-3.91604 11.67952,-0.0763 0,0 z m -23.13942,-0.20471 c 7.45791,-4.5306 13.9143,1.90152 1e-5,0 z m 13.29804,-0.5153 c 7.22921,-3.64129 7.24791,2.2304 0,0 z m 34.78173,0.2559 c 0.2666,-4.33246 11.46592,1.40477 0,0 z m -11.04825,-0.61168 c 5.27733,-4.28067 12.85425,1.75068 0,0 z m 22.5847,-0.3127 c 3.8155,-5.24465 10.66604,0.60731 0,0 z m 11.92182,-1.87264 c 3.37757,-2.95505 9.89627,1.03909 0,0 z m 10.15186,0.2663 c 2.54108,-4.60862 10.00335,0.35539 0,0 z m 9.866,-1.05632 c 1.0677,-4.58719 12.23064,3.10858 0,0 z m -37.06646,-0.22412 c -2.43163,-14.00592 5.29627,-1.04329 0,0 z m 48.54335,-0.23517 c 5.0638,-5.67191 9.39542,2.93646 0,0 z m 150.80291,-2.04957 c -0.7199,-16.29604 4.60444,-3.68657 0,0 z m -141.7567,-0.60573 c -0.64109,-8.55889 7.03246,-9.58954 0,0 z m -169.82095,-3.45248 c 2.72707,-5.20179 2.72916,2.02155 0,0 z m 232.76642,-1.59389 c -0.43027,-13.07444 3.95238,0.20975 0,0 z m -231.38801,-3.44006 c 1.14169,-13.23646 4.1821,2.01404 0,0 z m 111.45072,0.0993 c -0.45835,-12.88796 4.8142,-7.63628 0,0 z m 59.65086,-2.14487 c 2.39199,-12.06926 5.71003,-3.5992 0.71703,0.44 z m 138.69347,-3.77603 c -0.493,-9.24616 6.53749,-12.8792 0,0 z m -77.65347,-0.79757 c 0.51112,-9.90667 4.00154,-1.70531 8e-5,0 z M 194.40545,700.8077 c 1.22001,-6.54836 1.64026,5.47305 0,0 z m 350.11046,0.34515 c -15.13355,-5.54626 6.06903,-0.96732 0,0 z m -12,-4.46269 c -14.74657,-8.00458 8.16556,0.33851 0,0 z m -228.41245,-3.46937 c 1.89015,-10.00927 0.8232,9.84682 0,0 z m -109.32431,1.79993 c -1.43408,-9.55638 3.98908,0.34621 0,0 z m 172.29676,-1.00019 c 3.02014,-12.33262 4.05483,2.54186 0,0 z m 165.12,-1.36336 c 1.22637,-1.72198 1.22637,1.72198 0,0 z m -10.08,-0.48022 c -17.57385,-6.41334 8.35692,-0.60168 0,0 z m -96.59488,-0.1576 c 0.0106,-10.97329 3.96428,0.19699 0,0 z m 77.76448,-3.62736 c -5.73972,-14.55731 19.22598,1.32165 0,0 z M 305.22755,682.8356 c 1.94419,-14.7143 1.17562,11.51412 0,0 z m 65.56977,2.77408 c 0.25712,-9.1923 5.12499,-1.34058 0,0 z m -175.38559,-0.55251 c -2.27561,-10.59331 4.67069,-1.13204 0,0 z m 231.55279,-4.45648 c 2.35431,-12.45014 0.82324,9.06754 0,0 z m 71.66179,0.75325 c -9.22044,-7.63646 5.50455,0.13614 0,0 z m 10.67235,-3.92464 c -0.60319,-1.93308 2.96911,0.93294 0,0 z m -135.80592,-0.85213 c 3.14991,-16.27219 5.53521,-0.53272 0,0 z m -179.07594,-2.56 c -3.50264,-15.65445 4.54469,4.974 0,0 z m 295.58711,-0.47411 c -6.60094,-8.85803 8.07087,6.36327 0,0 z m 16.48534,-0.45923 c 2.66917,-12.36107 7.31963,-8.60673 0,0 z m -200.69816,-0.75447 c -1.28883,-10.76292 4.67296,-5.32564 0,0 z m 122.64012,-2.10358 c -2.17061,-7.31171 3.85016,-4.52061 0,0 z m 52.63545,-4.69722 c -6.53162,-8.1932 8.14197,6.67008 0,0 z m -289.13423,-1.11139 c -4.54987,-6.78769 2.45092,-4.65213 0,0 z m 186.66348,-2.0159 c 2.82604,-12.16073 1.76749,7.30227 0,0 z m 50.81267,-3.1041 c 0.591,-10.29703 1.65926,7.38256 0,0 z m 43.4953,-0.97098 c -4.88157,-7.71557 6.7417,5.53883 0,0 z m 40.63993,1.0122 c 1.51231,-9.55267 11.66341,-10.59416 0,0 z m -206.50256,-1.53616 c -0.61389,-13.35122 4.68779,-6.37393 0,0 z m -121.64431,-3.14506 c -3.77303,-4.86293 5.66357,2.23537 0,0 z m 195.28297,0.40646 c 0.4694,-10.30089 7.53661,-2.88944 0,0 z m 49.69686,-3.92646 c 0.95907,-11.34053 2.3393,7.60549 0,0 z m 34.68576,0.62787 c -6.28188,-8.03799 6.72048,4.95416 0,0 z m -284.11237,-2.1463 c -5.78873,-5.01101 4.81975,-0.77807 0,0 z m 202.76575,-3.62349 c -2.65727,-17.95668 10.31391,-3.82341 0,0 z m 73.83827,-0.77898 c -6.14196,-10.30022 8.41993,7.04796 0,0 z M 174.2034,644.56945 c -4.90824,-5.12011 9.26578,3.49166 0,0 z m 348.16451,-0.29382 c 4.59156,-7.4634 7.7674,-3.70681 0,0 z M 307.99676,644.0308 c -0.89824,-14.07108 5.01964,-2.32424 0,0 z m 123.46571,-3.07648 c 1.1815,-9.75698 0.63812,9.06283 0,0 z m -35.72723,0.7344 c -17.76448,0.40408 4.51313,-4.53687 0,0 z m 5.0527,-1.52093 c 3.85926,-4.02463 10.45988,2.69414 0,0 z m -227.31202,-1.06077 c 1.94928,-4.20743 7.76326,1.52175 0,0 z m 277.64671,-0.19434 c -3.58839,-5.8854 5.51095,2.58384 0,0 z m -41.26749,-0.61625 c 7.7485,-7.56464 9.35385,-1.64668 0,0 z m -229.33922,-0.46775 c 10.13643,-3.26105 -1.91075,0.54742 0,0 z m 6.87962,-1.65187 c 18.6773,-11.01752 24.66794,-6.05721 0,0 z m 343.21998,-0.23939 c 3.25858,-7.99722 11.14114,-6.52634 0,0 z M 377.90753,634.3571 c -8.88545,-11.51161 6.87104,1.65842 0,0 z m 54.12838,-1.17194 c 1.56109,-11.16663 2.0527,6.44778 0,0 z m 11.74998,-0.77702 c -6.23426,-8.25635 7.37185,6.27958 0,0 z m -134.82702,-0.53187 c -1.45541,-15.16718 4.93488,-6.0638 2e-5,0 z m 111.38459,-0.19901 c 5.70554,-7.19786 6.90216,-1.29405 0,0 z m -24.30451,-0.29491 c -14.32928,3.38309 -15.76277,-36.84991 -8.86892,-23.83335 -4.11019,30.87881 33.25641,17.56648 41.76135,-0.18221 18.65104,-16.9755 39.86252,-33.88118 45.39318,-59.87882 6.4707,-17.87099 8.39574,-42.6642 -9.86938,-53.05725 -23.15866,-7.83196 -48.46029,10.02702 -57.16582,30.81403 3.09054,13.35562 0.0413,28.67804 -3.73556,6.73052 -0.59666,-22.1878 22.82762,-35.04838 40.73431,-42.81638 30.70026,-10.73548 48.31275,24.7001 37.35119,49.78171 -5.46334,24.93721 -20.65673,45.77484 -40.32345,61.5945 -13.60104,11.64888 -24.57642,32.87012 -45.2769,30.84725 z m 58.33379,-44.96647 c 1.231,-3.81214 -4.95641,2.41185 0,0 z m -17.78803,40.08263 c -10.95952,-1.9633 2.82034,-6.91132 0,0 z m 97.6912,-1.19386 c -11.66401,-10.67641 12.37199,7.66782 0,0 z m -162.96,1.38083 c -4.356,-10.41502 3.4346,-4.7676 -2e-5,0 z m 169.52,-1.18032 c 5.73867,-11.02214 9.61384,-2.73888 0,0 z M 208.35592,623.7602 c 4.50597,-8.02648 3.16807,2.72765 0,0 z m 318.15749,-4.62432 c -12.31246,-11.85023 10.43793,6.6809 0,0 z m -314.19824,-0.70924 c 0.806,-8.6935 3.42576,0.33148 0,0 z m 225.00484,-0.1626 c 5.89989,-9.04698 8.8067,-2.6236 0,0 z m -127.48298,-2.03708 c -1.09372,-11.3829 5.55975,-3.02179 0,0 z m 240.75357,-0.85815 c 2.02227,-9.99644 10.93446,-1.6939 0,0 z m -181.01798,-1.3367 c -0.652,-16.47502 3.60702,5.58319 0,0 z m 150.62047,0.0607 c -8.14787,-5.07468 4.68979,-1.41898 0,0 z m -305.55888,-0.5438 c -2.65529,-11.06734 4.39327,-4.03064 0,0 z m 232.7617,-4.0448 c 6.32074,-8.77464 4.44821,1.06507 0,0 z m 65.84,-0.56365 c -4.35234,-7.67226 7.6451,3.16454 0,0 z m 46.70769,-1.44215 c 3.26469,-8.38449 10.96956,-6.315 0,0 z m -190.80106,-1.42265 c -2.06417,-16.84135 5.66552,0.2962 0,0 z m 140.47036,-1.56947 c -11.47899,-8.89394 6.06292,2.06333 0,0 z m -197.89699,-1.54637 c 1.26694,-11.0024 2.68367,5.43979 0,0 z m 141.63725,1.59776 c 1.2587,-4.52255 16.40255,-8.95603 0,0 z M 212.5136,601.93342 c -3.27256,-9.80546 6.68724,7.97354 0,0 z m 355.38472,-2.51977 c 4.91908,-8.84963 9.52413,-3.10638 0,0 z m -67.68577,-1.64119 c -8.0566,-7.06687 8.95754,4.76887 0,0 z m -79.59216,0.85005 c 4.58,-5.27411 31.4961,-21.21563 36.22934,-38.76512 10.07966,-11.93451 12.24696,-49.89819 -0.16723,-38.4 13.83254,-18.62464 -14.65856,5.47856 0.61994,-13.6 -11.19974,-6.8286 -29.64558,-9.0672 -5.10653,-7.04 24.03921,10.35011 16.69901,44.65983 5.79385,62.72 -9.09677,13.90502 -19.97271,32.0627 -37.36937,35.08512 z m 41.38886,-2.01846 c 3.40037,-9.67298 9.38018,-6.45074 0,0 z m -92.24652,-0.87776 c -0.5231,-10.82207 5.67025,-3.67231 0,0 z M 208.6952,594.93342 c -11.79563,-10.4528 6.50069,0.45698 0,0 z m 103.87405,-0.24937 c -1.0589,-10.58064 4.91845,-9.04305 0,0 z m 179.99779,-4.34663 c -4.28922,-6.66277 6.74878,3.84399 0,0 z m -81.11779,-1.41334 c 4.70724,-13.60017 24.17584,-22.95186 13.64807,-38.44284 16.70595,10.87151 -1.88303,33.32629 -13.64807,38.44284 z m 167.78667,-0.56231 c 6.59606,-8.66679 6.35141,1.1352 0,0 z m -109.44001,-0.84025 c 3.47577,-8.79892 4.73766,0.15263 0,0 z M 198.946,586.31908 c -8.98569,-8.60506 10.84622,4.26272 0,0 z m 288.15685,-0.34217 c -4.26176,-6.43311 6.84547,4.63443 0,0 z m -94.41968,-0.98823 c 10.08756,-10.74895 11.43686,-21.77909 4.78336,-35.36278 12.89384,7.60461 10.52355,30.02812 -4.78336,35.36278 z m -19.91913,-1.14979 c 0.72511,-9.82458 5.42888,-4.23385 0,0 z m -179.82373,-1.02317 c -19.86306,-12.34996 5.85699,-1.11292 0,0 z m 394.18895,0.0285 c 3.3675,-8.7818 12.9935,-5.7501 0,0 z m -106.06593,-2.14249 c -0.69674,-21.73684 6.88042,3.6345 0,0 z m -6.82825,-0.73619 c 6.1013,-12.61684 8.14439,-1.51857 0,0 z m -160.48299,-0.26679 c -1.8946,-10.44089 6.35046,-2.11412 0,0 z m -112.62994,-6.69379 c 4.62421,-4.48785 8.60188,2.54457 0,0 z m 10.67377,-0.2045 c 2.4448,-5.35109 12.64347,1.42795 0,0 z m -20.53715,-0.48589 c 2.49882,-10.01469 9.91656,1.54823 0,0 z m 406.38553,0.19642 c 4.96371,-9.79253 12.8183,-3.64686 0,0 z m -221.92839,-0.87085 c 0.46627,-9.91828 6.30601,-4.07454 0,0 z m -150.72,-0.33341 c -6.52867,-3.04341 15.86338,-0.18154 0,0 z m 12.00278,-0.72089 c -3.7565,-3.14453 12.99279,0.15362 0,0 z m 11.91722,-0.85498 c 4.08624,-8.68998 10.63682,3.75587 0,0 z m 65.25387,-0.0262 c -5.47067,-15.40505 6.26603,-5.54705 0,0 z m 172.40232,-0.1257 c 4.71861,-10.85386 7.00165,-0.39329 0,0 z m -226.54934,-0.62275 c 7.67974,-3.93903 11.28063,2.46376 0,0 z m 11.597,-1.36774 c 4.26265,-5.25085 11.15325,2.09267 0,0 z m -71.69051,-0.10432 c -0.0882,-5.62421 9.43916,-2.83851 0,0 z m 282.01367,-0.60238 c 1.53081,-9.96315 6.09715,-4.72288 0,0 z m -199.34701,-0.62435 c 6.70379,-4.91589 10.70528,3.52118 0,0 z m 12.35666,-0.64906 c 2.23086,-5.37148 14.58985,0.65035 0,0 z m 12.21803,-1.76124 c 3.74476,-3.77514 8.85907,2.04982 0,0 z m 10.50739,-0.53431 c 3.36405,-5.15788 11.13959,-0.0939 0,0 z m 290.58253,0.0224 c 7.88753,-11.14935 9.1941,-1.6523 0,0 z m -428.95404,-0.99968 c 0.17176,-6.19138 26.58898,-11.1739 18.06019,-29.16785 8.31728,11.13164 -1.11965,34.78523 -18.06019,29.16785 z m 150.15045,-1.70896 c 2.41528,-4.12762 10.12606,1.88605 0,0 z m 50.17898,-0.65721 c 0.77241,-11.1162 5.77273,-4.18659 0,0 z m -174.09599,-0.33594 c -1.75703,-3.83172 5.22053,-11.17656 0,0 z m 288.25599,-0.48077 c 2.83823,-9.73344 9.96596,-4.05768 0,0 z m -154.68752,-0.68269 c 5.00196,-3.84124 14.51372,0.96982 0,0 z m 145.73293,-1.00908 c 0.26501,-8.85845 5.41628,-5.60107 0,0 z M 314.92,556.18728 c -0.6792,-11.01932 4.32685,-0.47354 0,0 z m 37.43591,-0.16986 c 8.95253,-5.27574 9.97799,3.74071 0,0 z m 10.56,-0.56771 c 7.37018,-5.6167 13.8309,2.24361 0,0 z m 255.13885,-1.71629 c 3.45275,-7.48951 11.01962,-4.62881 0,0 z M 375.23591,552.6036 c 3.84133,-5.23542 19.99688,-11.64803 4.43773,8e-4 l -2.99773,0.19516 z m -202.19263,-0.78631 c -13.06468,2.14847 -48.30561,-11.04171 -17.10132,-7.92402 3.69159,0.0253 35.08516,5.58314 17.10132,7.92402 z m 328.00597,-2.25321 c 0.47619,-7.94667 8.98251,-6.29423 0,0 z m -14.42032,-0.69322 c -0.81407,-12.11684 4.68962,-1.61399 0,0 z m -279.71688,-1.65971 c -0.49741,-7.60807 4.57264,-6.14029 0,0 z m 108.44155,-1.10861 c -2.26277,-16.31393 5.624,-1.57998 0,0 z m 312.52231,-2.68659 c 3.52627,-7.51901 4.87867,1.86075 0,0 z M 387.081,540.83342 c 4.73199,-12.95712 7.37038,-4.26306 0,0 z m 117.38406,-1.79309 c 0.52799,-11.84051 5.4678,-4.30806 0,0 z m -294.76684,-3.66768 c 1.1213,-8.23966 0.86921,7.07156 0,0 z m 277.5053,1.15581 c 2.08034,-13.18189 6.19731,-4.50176 0,0 z m 148.41211,-1.87104 c 6.74456,-10.78676 5.51208,1.34359 0,0 z m -319.45574,-0.67126 c -1.04762,-9.36825 4.50302,-1.37577 0,0 z m -106.08237,-6.43341 c 0.95911,-3.11618 2.5441,1.09459 0,0 z m 431.55839,0.004 c 3.27934,-9.03694 8.03481,-3.47809 0,0 z m -248.96,-0.76928 c 3.76752,-9.90351 4.73425,0.36872 0,0 z m -76.05185,-0.70944 c -2.60113,-12.89245 4.77674,-0.0258 0,0 z m 190.07975,-0.16058 c -0.5223,-10.37433 5.11261,-1.31752 0,0 z m -18.44614,-2.28403 c -2.96216,-10.71853 3.99311,2.31374 0,0 z m -277.20545,-0.5224 c -0.3259,-6.79296 2.54617,1.51533 0,0 z m 182.76459,-2.73981 c -16.12507,-2.57283 6.30241,-3.02818 0,0 z m 3.30118,-0.11379 c 3.86793,-9.60019 10.06568,-7.39579 0,0 z m 251.87792,-2.91494 c 5.23078,-11.46214 6.07942,-0.9779 0,0 z m -265.6,0.411 c -12.28072,-4.58774 7.73649,-0.15022 0,0 z m 123.3496,-5.01606 c 2.89604,-16.82755 0.95225,14.13342 0,0 z m -189.45375,0.96669 c 1.45693,-9.68233 0.99677,9.36296 0,0 z m -105.41584,1.19574 c -1.49873,-8.55832 3.31775,0.8356 0,0 z m 161.59999,0.26192 c -8.6508,-0.3892 3.48047,4.51153 2.2598,0.30044 z m 113.20624,-1.4719 c -4.28455,-10.26773 3.5485,-4.25483 0,0 z M 361.6385,512.69518 c -6.01984,-4.52902 8.08422,1.27122 0,0 z m -9.12259,-2.21834 c -24.97628,-5.33579 13.98853,-0.62238 0,0 z m 52.1641,-1.9728 c 3.32413,-7.53163 8.26084,-3.16865 0,0 z m -119.361,-0.60521 c -4.30714,-3.58337 11.10193,1.23764 0,0 z m 57.98308,0.0781 c -9.96731,-3.14382 6.98974,-1.09172 0,0 z m -68.70618,-0.87459 c -9.2764,-5.99201 12.87935,2.15132 0,0 z m -60.92637,0.0351 c -2.25749,-7.37334 3.83516,-1.31667 0,0 z m 82.92637,0.21728 c 2.54308,-5.25988 15.26548,-0.34636 0,0 z m 20.85622,-2.1373 c 8.00185,-17.43451 6.94383,-0.73524 0,0 z m 13.53499,0.54186 c -1.72829,-4.69268 8.71208,2.85511 0,0 z m -22.59801,-0.65072 c 5.48144,-4.89935 11.32025,0.44132 -1e-5,0 z m -46.91815,-1.2176 c -5.4063,-5.55092 12.84744,3.76838 0,0 z m 246.41621,-1.45252 c -6.11347,-14.08582 4.00474,-3.09811 0,0 z m -26.01613,-1.88483 c -2.75299,-9.64396 6.86954,8.1134 0,0 z M 253.46471,501.365 c -17.92237,-4.19579 34.93693,-1.18287 3.9649,0.83433 z m 158.87971,-1.52614 c 3.34173,-8.18405 10.35995,-4.37474 0,0 z M 213.9984,497.77275 c -1.11736,-12.5711 3.7791,-3.99907 0,0 z m 30.57601,-1.79527 c -7.46599,-6.59633 7.30241,1.46785 0,0 z m 232.0215,-1.57004 c -10.49465,-10.55613 3.86814,-2.126 0,0 z m -148.38405,-0.60423 c 8.02548,-9.37143 12.96659,-4.84912 0,0 z m 176.66024,-3.82077 c -4.91533,-11.00276 5.23602,5.67562 0,0 z m -82.54285,1.02164 c 2.59247,-5.22697 11.78905,-2.82409 0,0 z m -185.58018,-1.41613 c -9.86801,-8.94019 4.56793,-0.4529 0,0 z m 101.42019,-2.74387 c 1.55571,-6.26875 7.44658,-3.77321 0,0 z m -122.32572,-0.35696 c -2.39499,-9.46966 2.04434,-2.89347 0,0 z m 250.39608,-0.59341 c -15.14969,-7.69949 7.7981,2.01173 0,0 z m -32.05334,-0.31258 c 2.21827,-4.15881 8.8096,-1.14757 0,0 z M 242.1087,483.94331 c 3.66633,-9.9553 9.14604,-33.8203 -0.37795,-41.94066 -6.33402,-3.88026 1.75091,-7.2118 8.79992,-10.58245 1.43989,16.98732 27.72997,26.07204 41.89233,36.17384 21.52844,1.71369 -6.37535,12.25307 -11.11631,12.75179 -9.47627,3.66144 -13.62443,0.94558 -19.38259,3.0674 -4.11725,-2.1973 -13.61522,0.02 -19.8154,0.53008 z m 17.26679,-2.42579 c -0.38388,-3.9047 -2.72569,3.1592 0,0 z m -4.60858,-3.74599 c 6.93311,-12.15852 9.25566,-17.98769 5.09979,-0.24292 13.5281,0.18436 48.82163,-4.75289 20.48921,-12.10044 -11.37848,1.37892 -29.31674,-26.06491 -26.58698,-3.28621 0.82549,4.97036 -9.40616,18.32677 0.99798,15.62957 z m -5.1359,-19.27411 c -2.53184,-8.30737 -2.79303,5.11727 0,0 z m 7.21357,-10.49402 c -2.26112,-3.99481 -6.1605,0.72041 0,0 z m -13.60867,-9.76486 c -0.99395,-1.16052 -0.60724,1.61132 0,0 z M 442.64836,482.586 c 5.54611,-4.67242 6.5238,2.28551 0,0 z m 59.00569,-0.0798 c -5.80511,-9.56919 3.86125,0.55983 0,0 z m -45.75024,0.1512 c -17.55999,-1.30451 7.98637,-2.68888 0,0 z M 229.6765,480.95215 c -7.88546,-11.68995 5.04042,1.36079 0,0 z m -13.7144,-3.7272 c -2.9015,-9.23182 3.34132,-3.20568 0,0 z m 128.21496,0.20192 c 0.47684,-8.01662 7.31545,-10.63882 0,0 z m 149.98048,-5.42163 c -5.39501,-10.23543 7.54269,7.27895 0,0 z m -271.90331,-2.04858 c -3.27357,-11.30867 7.16889,8.88224 0,0 z m 266.54939,-2.68804 c -9.56773,-7.94214 6.72121,1.14175 0,0 z m -272.89347,-1.19738 c -1.07173,-11.02733 4.92963,-4.23459 0,0 z m 132.41971,-2.84374 c 1.57501,-13.97784 3.68461,3.00271 0,0 z m 133.27574,-0.0176 c -13.16339,-6.46598 8.38426,-0.44067 0,0 z m -261.65709,-0.55248 c -5.50723,-13.85891 4.12173,0.62513 0,0 z m 163.7674,-2.67046 c -6.36005,-5.20059 18.7919,2.60694 0,0 z m 14.56349,0.25795 c -13.27547,-2.30876 13.11266,-1.46347 0,0 z m -25.12349,-1.26026 c -9.14238,-5.0297 19.07811,2.12491 0,0 z m 35.2,-0.53357 c 3.25941,-3.60233 10.01176,1.6239 0,0 z m 65.61917,-0.17504 c -15.89809,-3.99198 7.73984,-1.71576 0,0 z m -107.85917,-0.49606 c -17.25068,-6.5097 9.85189,0.28638 0,0 z m 51.54058,-0.46307 c 3.0591,-4.79194 11.79895,-0.36004 0,0 z m 46.28899,-0.85658 c -7.94273,-3.56754 8.0071,0.79805 0,0 z m -33.41053,-0.9664 c 7.4194,-4.09017 1.66466,-1.28681 0,0 z m -80.22905,-0.48048 c -1.57645,-19.06715 10.63994,1.02647 0,3e-5 z m 104.20991,-0.004 c -0.92058,-5.92314 12.58783,4.14092 0,0 z m -238.35977,-1.43683 c 0.54041,-7.88483 2.68002,3.6665 0,0 z m 224.83987,-0.0782 c 3.99613,-3.81063 6.88942,1.38684 0,0 z m -225.47468,-6.25187 c 1.75937,-21.71203 5.0967,-4.11554 0,0 z m 118.90241,-0.81046 c -11.99123,1.74082 -30.14283,-8.53168 -7.34773,-4.7864 -13.57165,-2.66469 -18.47526,-13.05909 -23.5762,-17.32562 -14.11917,-7.01844 -29.70473,-3.04405 -44.96607,-5.61985 -33.54368,8.40638 -5.93746,-15.67855 11.55932,-9.54445 12.57906,2.17629 34.02388,2.67888 46.10294,5.90179 2.01507,2.42328 24.65525,5.47559 4.16,7.36 21.00276,7.03274 -23.14582,5.00256 6.88999,7.56858 18.87129,-1.38991 -6.62215,7.85685 9.07878,7.72233 -0.0853,4.13743 18.8975,11.69996 -1.90103,8.72362 z m -7.38673,-10.86365 c 0.60297,-2.45636 -3.5047,1.03324 0,0 z m -19.961,-11.23102 c 11.7798,-3.06992 -9.58626,-0.83229 0,0 z m 6.72,-1.76438 c -1.38037,-2.28157 -1.28138,2.54708 0,0 z m 0.16,-6.23562 c -0.387,-1.16998 -0.78922,1.13993 0,0 z m 43.33389,28.11773 c 5.04036,-7.19847 10.8664,-2.30973 0,0 z m -9.25843,-1.99927 c -5.4551,-10.33409 3.95144,-0.18409 0,0 z m 17.44454,-3.5472 c 6.52403,-7.65734 9.17301,-1.70526 0,0 z m -146.66666,-4.5446 c 1.89604,-7.92666 8.51958,-7.25135 0,0 z m 154.66666,-1.33088 c 6.63518,-8.1928 5.75437,1.50584 0,0 z m -31.46944,-0.69405 c -3.81168,-7.3219 5.53825,3.77687 0,0 z m 38.18944,-4.19335 c 4.84414,-8.1494 4.04115,1.85353 0,0 z m -51.904,-1.63238 c 1.6731,-0.87404 0.18102,1.23608 0,0 z m -105.216,-2.14726 c 5.87784,-14.91045 3.69492,-0.12685 0,0 z m 112.21189,-1.36368 c -6.11267,-8.27298 9.19044,6.62916 0,0 z m 52.06817,0.2263 c 4.9074,-8.79731 7.66033,-3.64194 0.50327,0.46864 z m -156.76063,-7.53229 c 1.77435,-7.31074 6.47579,-3.27163 0,0 z m 96.68158,-0.8 c -3.31203,-6.65136 7.07358,4.26719 0,0 z m 69.73685,-0.13021 c 2.1631,-7.25197 10.03752,-5.52682 0,0 z m -78.04961,-4.47052 c -10.48531,-7.40442 7.62837,2.59471 0,0 z m -81.80825,-1.60583 c 1.54279,-3.48894 2.74316,2.1215 0,0 z m 2.88,-2.40633 c 0.588,-3.79656 2.8462,0.88535 0,0 z m 67.51318,-1.41098 c -7.52549,-5.72062 9.48031,1.62154 0,0 z m 99.58608,0.025 c 6.19558,-7.03988 8.27847,-1.46059 0,0 z m -162.10074,-1.21501 c 6.28929,-3.98633 9.42815,0.1108 0,0 z m 55.16148,-1.43187 c -18.15391,-5.27672 9.55532,-0.27736 0,0 z m -12.41044,-2.93171 c -12.1932,-1.94929 6.0422,-2.08158 0,0 z m -28.86956,-0.57335 c 5.96899,-5.0598 5.50477,1.81021 0,0 z m 12.7161,-0.51878 c 1.59118,-5.34496 9.27754,1.84914 0,0 z m 143.65628,-0.90829 c 2.93533,-8.19231 8.18529,-4.21807 0,0 z m 8.10762,-9.64489 c 3.71065,-8.56877 12.93319,-7.8579 0,0 z m 9.6,-10.81594 c 3.08169,-9.45436 4.13976,2.16336 0,0 z m 7.87862,-9.3351 c 2.37272,-8.08582 6.52305,-3.82323 0,0 z m 8.29924,-11.95631 c 3.15543,-9.52059 5.61724,-1.99042 0,0 z m 7.69747,-9.57174 c 1.88809,-7.60084 9.46892,-8.96793 0,0 z m 6.73801,-8.9105 c 0.29033,-5.15426 9.32079,-7.91029 0,0 z m 6.50666,-9.64656 c 1.62563,-6.37239 10.53897,-10.34893 0,0 z m 5.95027,-9.93114 c 3.9923,-7.95577 8.03309,-4.65661 0,0 z m 5.41008,-7.08841 c 2.75086,-7.01559 7.14085,-3.52173 0,0 z m 6.55965,-8.14923 c 2.27366,-6.23688 8.08437,-6.27042 0,0 z"
       id="path23746" />
  </g>
</svg>
